<?xml version="1.0" encoding="UTF-8"?>
<svg id="Plant1" xmlns="http://www.w3.org/2000/svg" version="1.1" viewBox="0 0 278.77 106.27">
  <!-- Generator: Adobe Illustrator 29.8.4, SVG Export Plug-In . SVG Version: 2.1.1 Build 6)  -->
  <defs>
    <style>
      .st0 {
        fill: #343417;
      }

      .st1, .st2, .st3, .st4, .st5 {
        stroke-miterlimit: 10;
      }

      .st1, .st2, .st3, .st5 {
        stroke: #ed1c24;
        stroke-width: .25px;
      }

      .st1, .st6 {
        fill: #9c9;
      }

      .st7 {
        fill: #349a46;
      }

      .st8 {
        fill: #999965;
      }

      .st9 {
        fill: #669940;
      }

      .st10 {
        fill: #183319;
      }

      .st2, .st11 {
        fill: #d1e8c5;
      }

      .st3 {
        fill: #fbcccc;
      }

      .st4 {
        fill: none;
        stroke: #231f20;
        stroke-width: 2.83px;
      }

      .st12 {
        fill: #231f20;
      }

      .st13 {
        isolation: isolate;
      }

      .st14 {
        fill: #51b848;
      }

      .st15, .st5 {
        fill: #cccc98;
      }

      .st16 {
        fill: #986828;
      }

      .st17 {
        fill: #999;
      }

      .st18 {
        fill: #349946;
      }

      .st19 {
        fill: #99cc67;
      }

      .st20 {
        fill: #663;
      }

      .st21 {
        fill: #653614;
      }

      .st22 {
        fill: #996632;
      }

      .st23 {
        fill: #356732;
      }
    </style>
  </defs>
  <path class="st11" d="M22.27,70.75s1.27-.76,1.31-.64c1.5,3.85.5,4.13,1.29,8.9.86,5.15,1,5.94,1.89,12.54.05.37-1.41.52-1.45.21-.85-6.35-1.02-6.84-2.05-12.6-.6-3.36.41-4.64-1-8.41h.01Z"/>
  <path class="st6" d="M34.27,71.36s-2.19-.99-2.25-.88c-2.7,5.04-3.27,6.59-3.84,10.79-.59,4.34-.61,5.02.11,10.57.03.23,2.06.54,2.02-.07-.37-5.67-.21-6.16-.05-10.33.11-2.9.74-4.4,4.01-10.08Z"/>
  <path class="st11" d="M11.62,13.66c.31,2.05-.62,3.63-.97,3.69s-1.77-.97-2.15-3.15.61-3.63.97-3.69,1.86,1.25,2.15,3.15Z"/>
  <path class="st17" d="M13.91,20.34c-1.82,2.79-1.38,5.83-.86,6.19s3.44-.09,5.46-3.03,1.39-5.82.86-6.19-3.77.43-5.46,3.03Z"/>
  <path class="st6" d="M9.3,21.36c2.84,1.75,3.73,4.69,3.41,5.23s-3.15,1.38-6.23-.42c-2.98-1.75-3.73-4.68-3.41-5.23s3.59-1.21,6.23.42Z"/>
  <path class="st8" d="M17.02,28.19c-2.84,4.36-2.15,9.09-1.34,9.65s5.37-.14,8.51-4.73,2.17-9.08,1.34-9.65c-.79-.54-5.87.68-8.51,4.73Z"/>
  <path class="st19" d="M9.84,29.8c4.42,2.73,5.81,7.31,5.31,8.16s-4.92,2.16-9.72-.65S-.39,30.01.12,29.14s5.6-1.89,9.72.65h0Z"/>
  <path class="st20" d="M19.42,38.93c-2.84,4.36-2.15,9.09-1.34,9.65s5.37-.14,8.51-4.73,2.17-9.08,1.34-9.65c-.79-.54-5.87.68-8.51,4.73Z"/>
  <path class="st9" d="M12.24,40.54c4.42,2.73,5.81,7.31,5.31,8.16s-4.92,2.16-9.72-.65c-4.65-2.73-5.82-7.29-5.31-8.16s5.6-1.89,9.72.65Z"/>
  <path class="st0" d="M21.22,50.79c-2.2,3.37-1.66,7.03-1.03,7.46s4.15-.11,6.58-3.66c2.36-3.44,1.67-7.02,1.03-7.46s-4.54.52-6.58,3.66Z"/>
  <path class="st7" d="M15.66,52.04c3.42,2.11,4.49,5.66,4.11,6.31s-3.8,1.67-7.51-.51c-3.6-2.11-4.5-5.64-4.11-6.31s4.33-1.46,7.51.51Z"/>
  <path class="st0" d="M22.01,61.87c-.93,1.43-.7,2.98-.44,3.16s1.76-.05,2.79-1.55.71-2.97.44-3.16-1.92.22-2.79,1.55Z"/>
  <path class="st23" d="M19.66,62.4c1.45.9,1.9,2.4,1.74,2.67s-1.61.71-3.18-.21-1.91-2.39-1.74-2.67,1.84-.62,3.18.21Z"/>
  <path d="M22.98,69c-.46.71-.35,1.49-.22,1.58s.88-.02,1.39-.77.35-1.49.22-1.58-.96.11-1.39.77Z"/>
  <path class="st10" d="M21.81,69.26c.72.45.95,1.2.87,1.34s-.81.35-1.59-.11-.95-1.19-.87-1.34.92-.31,1.59.11Z"/>
  <g>
    <path class="st0" d="M61.92,9.88c-2.29,4.72-6.74,6.59-7.64,6.18s-2.67-4.72-.34-9.82C56.19,1.29,60.65-.36,61.58.06c.93.42,2.47,5.43.34,9.82Z"/>
    <path class="st18" d="M58.28,16.23c-4.37,1.82-6.28,5.74-5.96,6.57s4.11,2.65,8.83.81c4.58-1.78,6.29-5.72,5.96-6.57s-4.77-2.51-8.83-.81Z"/>
    <path class="st15" d="M52.05,13.75c1.92,4.33.62,8.49-.19,8.87s-4.81-.9-6.97-5.48c-2.1-4.44-.64-8.48.19-8.87s5.19,1.46,6.97,5.48Z"/>
    <path class="st14" d="M54.9,25.7c-4.84,2.02-6.96,6.36-6.6,7.28s4.56,2.94,9.79.9c5.07-1.97,6.97-6.33,6.6-7.28s-5.28-2.78-9.79-.9Z"/>
    <path class="st22" d="M48,22.95c2.13,4.8.68,9.4-.21,9.83-.87.41-5.33-1-7.73-6.07-2.33-4.92-.71-9.39.21-9.83.87-.41,5.74,1.61,7.73,6.07Z"/>
    <path class="st2" d="M50.79,36.02c-4.84,2.02-6.96,6.36-6.6,7.28s4.56,2.94,9.79.9c5.07-1.97,6.97-6.33,6.6-7.28s-5.28-2.78-9.79-.9Z"/>
    <path class="st3" d="M43.89,33.27c2.13,4.8.68,9.4-.21,9.83-.87.41-5.33-1-7.73-6.07-2.33-4.92-.71-9.39.21-9.83.87-.41,5.74,1.61,7.73,6.07Z"/>
    <path class="st0" d="M38.01,65.63c-3.64,1.52-5.23,4.78-4.96,5.47s3.42,2.21,7.35.68c3.81-1.48,5.24-4.76,4.96-5.47s-3.97-2.09-7.35-.68Z"/>
    <path class="st21" d="M32.82,63.56c1.6,3.6.51,7.07-.16,7.38s-4-.75-5.81-4.56c-1.75-3.7-.53-7.06.16-7.38s4.32,1.21,5.81,4.56Z"/>
    <path class="st5" d="M46.54,46.41c-4.71,1.96-6.77,6.18-6.42,7.08s4.43,2.86,9.51.88,6.78-6.16,6.42-7.08c-.34-.88-5.14-2.7-9.51-.88Z"/>
    <path class="st23" d="M42.08,56.49c-4.17,1.74-5.99,5.48-5.69,6.27s3.92,2.53,8.43.78c4.37-1.7,6-5.46,5.69-6.27-.3-.78-4.55-2.39-8.43-.78Z"/>
    <path class="st1" d="M39.83,43.73c2.07,4.66.66,9.14-.21,9.55s-5.18-.97-7.51-5.9c-2.26-4.78-.69-9.13.21-9.55.9-.42,5.59,1.57,7.51,5.9Z"/>
    <path class="st16" d="M36.14,54.12c1.84,4.13.59,8.1-.18,8.46s-4.59-.86-6.65-5.23c-2-4.24-.61-8.09.18-8.46s4.95,1.39,6.65,5.23Z"/>
  </g>
  <g class="st13">
    <g class="st13">
      <path class="st12" d="M92.02,79.62v-10.58c0-.43-.12-.75-.35-.98-.23-.22-.52-.38-.87-.46l-6.51-1.56v-2.23h19.96v2.23l-4.18,1.56c-.29.1-.56.26-.84.47-.27.21-.41.54-.41.96v5.02c0,1.92,0,3.55.02,4.91.01,1.36.06,2.43.15,3.23-2.39.82-5.19,1.54-8.39,2.19-3.2.64-6.44.96-9.7.96-4.12,0-7.91-.88-11.36-2.63-3.45-1.75-6.21-4.33-8.27-7.72-2.06-3.4-3.09-7.55-3.09-12.46s1.02-8.75,3.06-12.19c2.04-3.44,4.83-6.1,8.37-7.98,3.54-1.89,7.55-2.83,12.02-2.83,2.06,0,4.01.09,5.84.26,1.83.17,3.66.43,5.48.76,1.82.34,3.71.75,5.66,1.24v11.19h-3.88l-1.22-6.33c-.07-.33-.26-.59-.58-.78-.32-.19-.62-.35-.9-.47-1.58-.65-3.32-1.17-5.23-1.56-1.91-.39-3.83-.58-5.76-.58-3,0-5.66.66-7.96,1.97-2.3,1.31-4.09,3.3-5.38,5.95s-1.92,6.01-1.92,10.06.66,7.52,1.97,10.58,3.22,5.46,5.72,7.19c2.5,1.73,5.53,2.6,9.08,2.6,1.47,0,2.83-.12,4.08-.37,1.25-.24,2.34-.52,3.27-.84.93-.32,1.64-.58,2.12-.78Z"/>
      <path class="st12" d="M124.55,84.76l-12.89-38.75c-.15-.51-.37-.93-.66-1.25-.29-.33-.62-.56-1.02-.7l-3.26-1.35v-2.23h17.1v2.23l-5.62,1.8,9.04,26.82,1.08,4.53h.59l9.34-26.7,3.49-7.98h4.74l10.39,30.07,1.25,4.68h.53l10.85-31.23-5.72-1.99v-2.23h14.9v2.23l-3.22,1.44c-.35.14-.68.36-.99.66-.31.3-.53.62-.66.96l-11.18,31.11-3.39,7.89h-4.83l-10.49-30.49-1.12-4.13h-.49l-9.41,26.73-3.45,7.89h-4.9Z"/>
      <path class="st12" d="M182.7,84.33v-2.29l5.06-1.5c.37-.1.67-.27.91-.5.23-.23.34-.58.34-1.03v-33.28c0-.43-.12-.75-.36-.98-.24-.22-.54-.39-.89-.49l-5.06-1.56v-2.23h19.54v2.23l-5.03,1.56c-.35.1-.65.27-.91.5-.25.23-.38.56-.38.96v13.92h23.22v-13.92c0-.43-.12-.75-.36-.96-.24-.21-.56-.38-.95-.5l-5-1.56v-2.23h19.54v2.23l-5,1.56c-.39.12-.71.3-.95.52-.24.22-.36.54-.36.95v33.28c0,.45.13.79.4,1.03s.57.4.92.5l5,1.5v2.29h-19.54v-2.29l5-1.5c.4-.12.71-.29.95-.52.24-.22.36-.56.36-1.01v-15.6h-23.22v15.6c0,.45.12.79.34,1.01.23.22.54.4.94.52l5.03,1.5v2.29h-19.54Z"/>
      <path class="st12" d="M240.09,82.59l-.2-11.71h3.88l1.38,6.33c.07.29.27.57.61.86.34.29.63.51.87.67.83.49,1.74.96,2.73,1.41s2.03.81,3.14,1.09,2.24.41,3.4.41c3.42,0,6.11-.69,8.06-2.08,1.95-1.39,2.93-3.28,2.93-5.69,0-1.81-.58-3.31-1.74-4.5-1.16-1.18-2.72-2.15-4.67-2.91-1.89-.73-3.74-1.36-5.58-1.88-1.83-.52-3.62-1.12-5.38-1.79-2.65-1.02-4.74-2.46-6.25-4.31-1.51-1.86-2.27-4.1-2.27-6.73,0-2.37.71-4.47,2.12-6.32,1.41-1.85,3.33-3.3,5.74-4.37,2.41-1.07,5.11-1.61,8.09-1.61,1.8,0,3.51.1,5.15.31,1.63.2,3.19.46,4.67.76,1.48.31,2.89.61,4.23.92v11.23h-3.85l-1.32-6c-.07-.29-.26-.57-.59-.84-.33-.28-.62-.49-.89-.66-.5-.35-1.12-.67-1.86-.96-.73-.3-1.55-.54-2.45-.72-.9-.18-1.86-.28-2.89-.28-3.11,0-5.53.61-7.25,1.83-1.72,1.22-2.58,2.72-2.58,4.5,0,1.59.47,3.07,1.4,4.45.93,1.38,2.72,2.52,5.38,3.44,1.75.59,3.47,1.15,5.16,1.68,1.69.53,3.53,1.18,5.53,1.96,1.47.57,2.88,1.32,4.23,2.23,1.35.92,2.46,2.1,3.32,3.53.87,1.44,1.3,3.23,1.3,5.37s-.62,4.34-1.88,6.35c-1.25,2.01-3.22,3.64-5.92,4.91s-6.23,1.9-10.59,1.9c-1.51,0-3.11-.14-4.8-.43-1.69-.29-3.41-.64-5.16-1.07s-3.49-.86-5.2-1.29Z"/>
    </g>
    <g class="st13">
      <path class="st4" d="M92.02,79.62v-10.58c0-.43-.12-.75-.35-.98-.23-.22-.52-.38-.87-.46l-6.51-1.56v-2.23h19.96v2.23l-4.18,1.56c-.29.1-.56.26-.84.47-.27.21-.41.54-.41.96v5.02c0,1.92,0,3.55.02,4.91.01,1.36.06,2.43.15,3.23-2.39.82-5.19,1.54-8.39,2.19-3.2.64-6.44.96-9.7.96-4.12,0-7.91-.88-11.36-2.63-3.45-1.75-6.21-4.33-8.27-7.72-2.06-3.4-3.09-7.55-3.09-12.46s1.02-8.75,3.06-12.19c2.04-3.44,4.83-6.1,8.37-7.98,3.54-1.89,7.55-2.83,12.02-2.83,2.06,0,4.01.09,5.84.26,1.83.17,3.66.43,5.48.76,1.82.34,3.71.75,5.66,1.24v11.19h-3.88l-1.22-6.33c-.07-.33-.26-.59-.58-.78-.32-.19-.62-.35-.9-.47-1.58-.65-3.32-1.17-5.23-1.56-1.91-.39-3.83-.58-5.76-.58-3,0-5.66.66-7.96,1.97-2.3,1.31-4.09,3.3-5.38,5.95s-1.92,6.01-1.92,10.06.66,7.52,1.97,10.58,3.22,5.46,5.72,7.19c2.5,1.73,5.53,2.6,9.08,2.6,1.47,0,2.83-.12,4.08-.37,1.25-.24,2.34-.52,3.27-.84.93-.32,1.64-.58,2.12-.78Z"/>
      <path class="st4" d="M124.55,84.76l-12.89-38.75c-.15-.51-.37-.93-.66-1.25-.29-.33-.62-.56-1.02-.7l-3.26-1.35v-2.23h17.1v2.23l-5.62,1.8,9.04,26.82,1.08,4.53h.59l9.34-26.7,3.49-7.98h4.74l10.39,30.07,1.25,4.68h.53l10.85-31.23-5.72-1.99v-2.23h14.9v2.23l-3.22,1.44c-.35.14-.68.36-.99.66-.31.3-.53.62-.66.96l-11.18,31.11-3.39,7.89h-4.83l-10.49-30.49-1.12-4.13h-.49l-9.41,26.73-3.45,7.89h-4.9Z"/>
      <path class="st4" d="M182.7,84.33v-2.29l5.06-1.5c.37-.1.67-.27.91-.5.23-.23.34-.58.34-1.03v-33.28c0-.43-.12-.75-.36-.98-.24-.22-.54-.39-.89-.49l-5.06-1.56v-2.23h19.54v2.23l-5.03,1.56c-.35.1-.65.27-.91.5-.25.23-.38.56-.38.96v13.92h23.22v-13.92c0-.43-.12-.75-.36-.96-.24-.21-.56-.38-.95-.5l-5-1.56v-2.23h19.54v2.23l-5,1.56c-.39.12-.71.3-.95.52-.24.22-.36.54-.36.95v33.28c0,.45.13.79.4,1.03s.57.4.92.5l5,1.5v2.29h-19.54v-2.29l5-1.5c.4-.12.71-.29.95-.52.24-.22.36-.56.36-1.01v-15.6h-23.22v15.6c0,.45.12.79.34,1.01.23.22.54.4.94.52l5.03,1.5v2.29h-19.54Z"/>
      <path class="st4" d="M240.09,82.59l-.2-11.71h3.88l1.38,6.33c.07.29.27.57.61.86.34.29.63.51.87.67.83.49,1.74.96,2.73,1.41s2.03.81,3.14,1.09,2.24.41,3.4.41c3.42,0,6.11-.69,8.06-2.08,1.95-1.39,2.93-3.28,2.93-5.69,0-1.81-.58-3.31-1.74-4.5-1.16-1.18-2.72-2.15-4.67-2.91-1.89-.73-3.74-1.36-5.58-1.88-1.83-.52-3.62-1.12-5.38-1.79-2.65-1.02-4.74-2.46-6.25-4.31-1.51-1.86-2.27-4.1-2.27-6.73,0-2.37.71-4.47,2.12-6.32,1.41-1.85,3.33-3.3,5.74-4.37,2.41-1.07,5.11-1.61,8.09-1.61,1.8,0,3.51.1,5.15.31,1.63.2,3.19.46,4.67.76,1.48.31,2.89.61,4.23.92v11.23h-3.85l-1.32-6c-.07-.29-.26-.57-.59-.84-.33-.28-.62-.49-.89-.66-.5-.35-1.12-.67-1.86-.96-.73-.3-1.55-.54-2.45-.72-.9-.18-1.86-.28-2.89-.28-3.11,0-5.53.61-7.25,1.83-1.72,1.22-2.58,2.72-2.58,4.5,0,1.59.47,3.07,1.4,4.45.93,1.38,2.72,2.52,5.38,3.44,1.75.59,3.47,1.15,5.16,1.68,1.69.53,3.53,1.18,5.53,1.96,1.47.57,2.88,1.32,4.23,2.23,1.35.92,2.46,2.1,3.32,3.53.87,1.44,1.3,3.23,1.3,5.37s-.62,4.34-1.88,6.35c-1.25,2.01-3.22,3.64-5.92,4.91s-6.23,1.9-10.59,1.9c-1.51,0-3.11-.14-4.8-.43-1.69-.29-3.41-.64-5.16-1.07s-3.49-.86-5.2-1.29Z"/>
    </g>
  </g>
</svg>