<svg xmlns="http://www.w3.org/2000/svg" viewBox="1 10.78 207.32 42.44"><defs><style>.c{fill:#231f20;}</style></defs><g id="a"><g><path class="c" d="M1.08,53.06l2.98-8.45h1.05l2.98,8.45h-1.04l-.83-2.41H2.88l-.83,2.41h-.97Zm2.1-3.29h2.73l-1.34-3.95h-.02l-1.37,3.95Z"/><path class="c" d="M13.56,51.02l.84-.38c.42,1.13,1.25,1.68,2.39,1.68s1.97-.5,1.97-1.39c0-.83-.45-1.24-2.12-1.76-1.75-.53-2.8-1.01-2.8-2.47,0-1.29,1.1-2.23,2.71-2.23s2.54,.82,2.97,1.89l-.8,.44c-.45-1.01-1.18-1.42-2.18-1.42-1.07,0-1.71,.52-1.71,1.24,0,.9,.57,1.19,2.22,1.72,1.7,.52,2.7,1.09,2.7,2.53s-1.22,2.34-3,2.34c-1.61,0-2.75-.86-3.19-2.19Z"/><path class="c" d="M22.64,48.81c0-2.63,1.47-4.33,3.57-4.33,1.79,0,2.73,1.03,3.12,2.58l-.96,.26c-.36-1.27-.94-1.92-2.17-1.92-1.57,0-2.55,1.32-2.55,3.4,0,2.23,1,3.5,2.57,3.5,1.19,0,1.93-.67,2.29-2.04l.94,.22c-.41,1.66-1.48,2.73-3.24,2.73-2.14,0-3.57-1.64-3.57-4.4Z"/><path class="c" d="M32.78,53.06v-8.42h1v8.42h-1Z"/><path class="c" d="M37.56,53.06v-8.42h5.16v.92h-4.16v2.63h3.09v.9h-3.09v3.06h4.4v.91h-5.4Z"/><path class="c" d="M46.09,53.06v-8.42h1.06l4.42,6.65h.02v-6.65h.94v8.42h-.9l-4.58-6.84h-.02v6.84h-.94Z"/><path class="c" d="M55.79,48.81c0-2.63,1.47-4.33,3.57-4.33,1.79,0,2.73,1.03,3.12,2.58l-.96,.26c-.36-1.27-.94-1.92-2.17-1.92-1.57,0-2.55,1.32-2.55,3.4,0,2.23,1,3.5,2.57,3.5,1.19,0,1.93-.67,2.29-2.04l.94,.22c-.41,1.66-1.48,2.73-3.24,2.73-2.13,0-3.57-1.64-3.57-4.4Z"/><path class="c" d="M65.82,53.06v-8.42h5.16v.92h-4.16v2.63h3.09v.9h-3.09v3.06h4.4v.91h-5.4Z"/><path class="c" d="M79.28,53.06v-8.42h2.86c1.82,0,3.04,.72,3.04,2.39,0,1.8-1.34,2.47-3.11,2.47h-1.79v3.56h-1Zm1.01-4.45h1.84c1.34,0,2.06-.41,2.06-1.55,0-1.08-.71-1.51-2.07-1.51h-1.83v3.06Z"/><path class="c" d="M87.59,53.06l2.98-8.45h1.05l2.98,8.45h-1.04l-.83-2.41h-3.34l-.83,2.41h-.97Zm2.1-3.29h2.73l-1.34-3.95h-.02l-1.37,3.95Z"/><path class="c" d="M97.59,53.06v-8.42h2.89c1.91,0,2.99,.81,2.99,2.35,0,1.35-.76,2.06-1.96,2.31l2.07,3.75h-1.09l-2.01-3.63h-1.9v3.63h-.99Zm.99-4.51h1.84c1.32,0,2.06-.36,2.06-1.51s-.73-1.48-2.07-1.48h-1.83v2.99Z"/><path class="c" d="M108.89,53.06v-7.5h-2.67v-.92h6.36v.92h-2.68v7.5h-1.01Z"/><path class="c" d="M115.57,53.06v-8.42h1.06l4.42,6.65h.02v-6.65h.94v8.42h-.9l-4.58-6.84h-.02v6.84h-.94Z"/><path class="c" d="M125.69,53.06v-8.42h5.16v.92h-4.16v2.63h3.09v.9h-3.09v3.06h4.4v.91h-5.4Z"/><path class="c" d="M134.21,53.06v-8.42h2.89c1.91,0,2.99,.81,2.99,2.35,0,1.35-.76,2.06-1.96,2.31l2.07,3.75h-1.09l-2.01-3.63h-1.9v3.63h-.99Zm.99-4.51h1.84c1.32,0,2.06-.36,2.06-1.51s-.73-1.48-2.07-1.48h-1.83v2.99h0Z"/><path class="c" d="M146.55,52.11l.67-.57c.34,.47,.77,.8,1.43,.8,.85,0,1.42-.41,1.42-1.63v-6.07h1v6.14c0,1.58-.9,2.43-2.39,2.43-1.01,.01-1.65-.44-2.13-1.1Z"/><path class="c" d="M154.25,48.85c0-2.71,1.56-4.37,3.64-4.37s3.62,1.66,3.62,4.37-1.54,4.37-3.62,4.37c-2.08,0-3.64-1.67-3.64-4.37Zm6.25,0c0-2.2-1.09-3.46-2.62-3.46s-2.63,1.26-2.63,3.46,1.08,3.47,2.63,3.47,2.62-1.28,2.62-3.47Z"/><path class="c" d="M164.69,50.14v-5.51h1v5.37c0,1.35,.65,2.3,2.14,2.3s2.12-.91,2.12-2.27v-5.39h.99v5.48c0,1.75-1.03,3.08-3.12,3.08-2.16,0-3.13-1.32-3.13-3.06Z"/><path class="c" d="M174.52,53.06v-8.42h2.89c1.91,0,2.99,.81,2.99,2.35,0,1.35-.76,2.06-1.96,2.31l2.07,3.75h-1.09l-2.01-3.63h-1.9v3.63h-.99Zm.99-4.51h1.84c1.32,0,2.06-.36,2.06-1.51s-.73-1.48-2.07-1.48h-1.83v2.99h0Z"/><path class="c" d="M183.82,53.06v-8.42h1.06l4.42,6.65h.02v-6.65h.94v8.42h-.9l-4.58-6.84h-.02v6.84h-.94Z"/><path class="c" d="M193.26,53.06l2.98-8.45h1.05l2.98,8.45h-1.04l-.83-2.41h-3.34l-.83,2.41h-.97Zm2.11-3.29h2.73l-1.34-3.95h-.02l-1.37,3.95Z"/><path class="c" d="M203.27,53.06v-8.42h1v7.51h4.05v.91h-5.05Z"/></g></g><g id="b"><g><path d="M1.06,32.7c.48-.03,1.69-.21,2.03-.36,.61-.27,.82-.85,.82-1.51V15.39c0-.67-.15-1.24-.82-1.51-.61-.24-1.6-.45-2.09-.51v-.67H10.44c3.78,0,6.23,1.72,6.23,5.02,0,4.3-3.66,6.36-7.38,6.36h-1.69v6.72c0,.67,.21,1.21,.82,1.48,.33,.15,1.48,.36,2.09,.42v.67H1.06v-.67Zm7.47-9.56c3.33,0,4.06-2.66,4.06-4.69,0-2.63-.85-4.87-3.63-4.87h-1.36v9.56h.94Z"/><path d="M16.13,32.76c.45-.03,.85-.09,1.21-.24,.51-.18,.7-.67,.7-1.33V14.06c0-.73-.27-1.42-.73-1.76-.3-.24-1.36-.54-1.85-.58v-.61l5.6-.33,.18,.21V31.01c0,.67,.24,1.15,.73,1.39,.39,.18,.7,.3,1.18,.36v.61h-7.02v-.61Z"/><path d="M23.3,30.46c0-2.54,1.3-3.36,2.63-3.9,1.6-.67,3.57-1.24,4.51-1.94v-1.73c0-.76-.03-3.06-1.94-3.06-.79,0-1.18,.54-1.42,.85,.03,.45,.39,1.21,.39,2s-.85,1.51-2,1.51c-1.09,0-1.54-.88-1.54-1.82,0-1.85,2.57-3.21,4.78-3.21,2.78,0,4.96,.45,4.96,4.48,0,2.72-.15,5.9-.15,6.9,0,.51,.39,1.48,1.12,1.48,.82,0,.97-1.21,1-2.45h.7c-.12,2.69-1.09,4.12-3.09,4.12-1.48,0-2.3-.73-2.75-2h-.09c-.94,1.18-2.09,2.06-3.9,2.06s-3.21-1.33-3.21-3.3Zm7.05,.36l.12-5.27c-2.24,.88-3.75,1.63-3.75,4.27,0,1.6,.64,2.33,1.54,2.33,1.18,0,1.57-.51,2.09-1.33Z"/><path d="M36.17,32.76c.45-.03,.82-.09,1.18-.24,.48-.18,.7-.67,.7-1.33v-8.81c-.03-.64-.3-1.3-.73-1.6-.3-.24-.88-.45-1.33-.48v-.58l5.08-.36,.21,.21v2.09h.03c1-1.15,1.97-2.48,4.24-2.48,2.48,0,3.69,1.85,3.69,4.72v7.17c0,.67,.15,1.09,.64,1.33,.39,.18,.73,.3,1.21,.36v.61h-6.84v-.61c.42-.03,.85-.09,1.15-.24,.42-.18,.58-.67,.58-1.33v-7.23c0-2.09-.85-3.09-1.88-3.09-1.66,0-2.54,1.21-2.81,1.91v8.26c0,.67,.15,1.12,.54,1.36,.36,.21,.79,.3,1.15,.36v.61h-6.81v-.61Z"/><path d="M52.4,29.46v-8.59h-2.45v-1.27h2.51v-4.54h3.12v4.54h3.54v1.27h-3.54v8.29c0,1.48,.42,2.66,1.79,2.66,1.27,0,1.39-1.18,1.51-2.42h.7c-.15,2.33-1.21,4.3-3.66,4.3-2.3,0-3.51-1.54-3.51-4.24Z"/><path d="M65.23,32.7c.48-.03,1.69-.21,2.03-.36,.61-.27,.82-.85,.82-1.51V15.39c0-.67-.15-1.24-.82-1.51-.61-.24-1.6-.45-2.09-.51v-.67h9.44c3.78,0,6.23,1.72,6.23,5.02,0,4.3-3.66,6.36-7.38,6.36h-1.69v6.72c0,.67,.21,1.21,.82,1.48,.33,.15,1.48,.36,2.09,.42v.67h-9.44v-.67Zm7.47-9.56c3.33,0,4.06-2.66,4.06-4.69,0-2.63-.85-4.87-3.63-4.87h-1.36v9.56h.94Z"/><path d="M80.31,32.76c.45-.03,.82-.09,1.18-.24,.51-.18,.7-.67,.7-1.33V13.97c-.03-.67-.27-1.42-.73-1.76-.3-.24-1.3-.45-1.79-.48v-.61l5.57-.33,.15,.21v10.65h.06c1-1.15,2-2.48,4.33-2.48,2.48,0,3.57,1.85,3.57,4.72v7.17c0,.67,.21,1.12,.7,1.36,.33,.18,.73,.27,1.18,.33v.61h-6.81v-.61c.36-.03,.82-.09,1.12-.24,.42-.18,.58-.67,.58-1.33v-7.23c0-2.03-.82-3.09-1.88-3.09-1.66,0-2.54,1.21-2.84,1.91v8.26c0,.67,.18,1.09,.61,1.36,.36,.21,.76,.33,1.15,.36v.61h-6.84v-.61Z"/><path d="M95.06,26.38c0-3.75,2.15-7.2,5.99-7.2s5.33,2.78,5.33,5.9v.33h-7.87v.33c0,3.75,1.09,6.48,3.81,6.48,1.85,0,2.75-.76,3.75-2.72l.54,.39c-.97,2.21-2.88,3.87-5.33,3.87-4.27,0-6.23-3.33-6.23-7.38Zm7.9-1.79c0-2.24-.27-4.69-2-4.69-1.45,0-2.36,1.82-2.45,4.75l4.45-.06Z"/><path d="M106.5,32.76c.45-.03,.82-.09,1.18-.24,.48-.18,.7-.67,.7-1.33v-8.81c-.03-.64-.3-1.3-.73-1.6-.3-.24-.88-.45-1.33-.48v-.58l5.08-.36,.21,.21v2.09h.03c1-1.15,1.97-2.48,4.24-2.48,2.48,0,3.69,1.85,3.69,4.72v7.17c0,.67,.15,1.09,.64,1.33,.39,.18,.73,.3,1.21,.36v.61h-6.84v-.61c.42-.03,.85-.09,1.15-.24,.42-.18,.58-.67,.58-1.33v-7.23c0-2.09-.85-3.09-1.88-3.09-1.66,0-2.54,1.21-2.81,1.91v8.26c0,.67,.15,1.12,.54,1.36,.36,.21,.79,.3,1.15,.36v.61h-6.81v-.61Z"/><path d="M121.24,26.5c0-4.33,2.57-7.32,6.51-7.32s6.42,3.06,6.42,7.17-2.27,7.44-6.57,7.44c-3.45,0-6.36-2.75-6.36-7.29Zm9.35-.15c0-3.18-.58-6.48-2.84-6.48-2.45,0-2.94,3.51-2.94,6.42,0,3.6,.73,6.78,2.94,6.78,2.09,0,2.84-3.09,2.84-6.72Z"/><path d="M134.26,32.76c.45-.03,.82-.09,1.18-.24,.48-.18,.7-.67,.7-1.33v-8.87c-.03-.64-.3-1.21-.73-1.51-.3-.24-.88-.48-1.36-.51v-.58l5.08-.36,.21,.21v2.06h.06c1-1.12,1.91-2.45,4.21-2.45,1.66,0,2.84,.97,3.42,2.57h.06c1.03-1.21,2.12-2.57,4.36-2.57,2.45,0,3.54,1.97,3.54,4.75v7.11c0,.67,.18,1.12,.64,1.36,.39,.21,.79,.3,1.24,.36v.61h-6.75v-.61c.39-.03,.76-.09,1.06-.24,.42-.18,.54-.67,.54-1.33v-7.26c0-2.03-.76-3.06-1.82-3.06-1.66,0-2.45,1.21-2.75,1.85v8.32c0,.67,.18,1.12,.58,1.36,.33,.18,.7,.33,1.09,.36v.61h-6.48v-.61c.39-.03,.7-.09,1.03-.24,.42-.18,.54-.67,.54-1.33v-7.26c0-2.03-.79-3.06-1.82-3.06-1.66,0-2.45,1.24-2.72,1.88v8.26c0,.67,.12,1.12,.54,1.39,.36,.21,.7,.33,1.09,.36v.61h-6.75v-.61Z"/><path d="M157.33,32.76c.45-.03,.82-.09,1.18-.24,.48-.18,.73-.73,.73-1.33v-8.81c-.03-.67-.27-1.18-.7-1.51-.33-.24-1.15-.54-1.63-.58v-.58l5.36-.36,.18,.21v11.44c0,.64,.24,1.09,.76,1.39,.39,.21,.79,.3,1.18,.36v.61h-7.05v-.61Zm1.21-19.46c0-1.18,.88-2.12,2-2.12,1.18,0,2.06,.91,2.06,2.06s-.88,2.15-2.06,2.15-2-.94-2-2.09Z"/><path d="M164.14,26.41c0-3.78,2.33-7.23,6.29-7.23,2.91,0,4.33,1.57,4.33,3.51,0,1.09-.61,1.91-1.76,1.91-.67,0-1.82-.45-1.82-1.66,0-1.12,.39-1.36,.48-2.03-.12-.7-.45-1-1.24-1-1.48,0-2.78,1.73-2.78,6.23,0,3.57,1.3,6.05,3.42,6.05,1.85,0,2.88-.94,3.72-2.75l.61,.42c-.94,2.18-2.94,3.9-5.21,3.9-4.09,0-6.05-3.15-6.05-7.35Z"/><path d="M177.02,32.55l-.36,.97h-.85l-.12-4.93h.61c.42,1.63,2.06,4.48,4.18,4.48,1.63,0,2.33-1.06,2.33-2.51s-1.15-2.15-3.09-2.81c-1.76-.61-3.69-1.73-3.69-4.42,0-2.3,1.82-4.15,4.48-4.15,1.18,0,2.33,.3,3.06,.79l.27-.82h.79l.18,4.42h-.58c-.42-1.88-1.91-3.66-3.54-3.66-1.39,0-2.03,1.03-2.03,2.12,0,1.6,.88,2,3.03,2.78,2.15,.76,3.72,2.06,3.72,4.51,0,2.84-2.24,4.48-4.93,4.48-1.48,0-2.94-.73-3.45-1.24Z"/></g></g></svg>